#tb 0: 1/25
#media_type 0: video
#codec_id 0: rawvideo
#dimensions 0: 416x240
#sar 0: 0/1
0,          0,          0,        1,   149760, 0x1613b277
0,          1,          1,        1,   149760, 0xf92d5543
0,          2,          2,        1,   149760, 0xf119ba8e
0,          3,          3,        1,   149760, 0xbce35d0a
0,          4,          4,        1,   149760, 0x0f4dc325
0,          5,          5,        1,   149760, 0xc95379ae
0,          6,          6,        1,   149760, 0xbf4e9b84
0,          7,          7,        1,   149760, 0x3a7c3cdf
0,          8,          8,        1,   149760, 0x8d5e8895
0,          9,          9,        1,   149760, 0x3128397e
0,         10,         10,        1,   149760, 0x4389dee6
0,         11,         11,        1,   149760, 0x8a6a7236
0,         12,         12,        1,   149760, 0x638049ef
0,         13,         13,        1,   149760, 0x0075da54
0,         14,         14,        1,   149760, 0x5fd84a25
0,         15,         15,        1,   149760, 0xfbd4af2b
